<svg xmlns="http://www.w3.org/2000/svg" id="expand" viewBox="0 0 23.661 23.661">
    <defs>
        <style>
            .cls-1{fill:#f3f3f3}
        </style>
    </defs>
    <g id="Group_1" data-name="Group 1">
        <path id="Path_143" d="M0 .595v22.471a.594.594 0 0 0 .595.595h10.832a.595.595 0 0 0 0-1.19H1.185V1.185h21.286v10.179a.595.595 0 1 0 1.19 0V.595A.594.594 0 0 0 23.066 0H.595A.594.594 0 0 0 0 .595z" class="cls-1" data-name="Path 143"/>
        <path id="Path_144" d="M303.725 303.13v-8.235a.594.594 0 0 0-.595-.595h-8.235a.594.594 0 0 0-.595.595v8.24a.594.594 0 0 0 .595.595h8.24a.6.6 0 0 0 .59-.6zm-1.185-.59h-7.055v-7.055h7.055z" class="cls-1" data-name="Path 144" transform="translate(-280.069 -280.069)"/>
        <path id="Path_145" d="M92.28 86.395a.594.594 0 0 0-.595-.595h-5.29a.594.594 0 0 0-.595.595v5.3a.595.595 0 0 0 1.19 0v-3.874l6.71 6.707a.593.593 0 0 0 .841-.837l-6.717-6.707h3.864a.593.593 0 0 0 .592-.589z" class="cls-1" data-name="Path 145" transform="translate(-81.651 -81.651)"/>
    </g>
</svg>
